<?xml version="1.0" standalone="no"?>
<!DOCTYPE svg PUBLIC "-//W3C//DTD SVG 20010904//EN"
 "http://www.w3.org/TR/2001/REC-SVG-20010904/DTD/svg10.dtd">
<svg version="1.0" xmlns="http://www.w3.org/2000/svg"
 width="750.000000pt" height="635.000000pt" viewBox="0 0 750.000000 635.000000"
 preserveAspectRatio="xMidYMid meet">
<metadata>
Created by potrace 1.16, written by Peter Selinger 2001-2019
</metadata>
<g transform="translate(0.000000,635.000000) scale(0.100000,-0.100000)"
fill="#000000" stroke="none">
<path d="M955 6010 c-85 -15 -129 -237 -91 -455 8 -44 32 -134 54 -200 38
-118 88 -276 102 -325 4 -14 16 -27 31 -30 20 -5 17 -7 -18 -13 -34 -6 -44
-12 -49 -32 -3 -14 -12 -25 -20 -25 -8 0 -14 -4 -14 -10 0 -5 4 -10 9 -10 15
0 22 -33 9 -42 -10 -6 -8 -8 5 -8 9 0 17 -3 17 -7 4 -91 11 -158 40 -383 29
-223 28 -219 50 -400 19 -158 34 -387 31 -460 -1 -19 -2 -53 -3 -75 -1 -22 -6
-43 -12 -47 -8 -6 -7 -11 3 -17 8 -5 9 -11 3 -15 -5 -3 -13 -39 -17 -81 -4
-41 -11 -77 -16 -81 -5 -3 -10 -24 -10 -47 -1 -23 -5 -55 -9 -72 -4 -16 -5 83
-2 220 3 138 1 295 -4 350 -8 97 -9 93 -15 -130 -6 -200 -19 -382 -34 -465
-18 -104 -45 -272 -49 -307 -3 -23 -9 -50 -14 -60 -17 -31 -71 -263 -87 -367
-20 -133 -28 -338 -17 -411 8 -54 9 -46 10 72 1 148 4 176 38 352 35 179 96
382 108 362 4 -6 4 -16 0 -23 -4 -7 -8 -21 -9 -32 -1 -12 -11 -59 -23 -106
-40 -164 -53 -253 -63 -408 -9 -141 -7 -271 5 -290 2 -4 7 -29 10 -57 4 -27
13 -63 21 -78 8 -15 11 -35 8 -43 -3 -10 0 -12 10 -9 11 5 13 0 9 -21 -4 -20
-2 -25 8 -19 8 5 11 3 8 -6 -7 -20 -28 -18 -62 5 -28 19 -29 19 -43 0 -9 -11
-13 -36 -11 -61 2 -24 0 -43 -3 -43 -4 0 -5 -9 -2 -19 4 -14 -1 -20 -18 -23
-13 -2 -28 -12 -34 -23 -6 -13 -18 -19 -32 -17 -29 4 -30 -15 -4 -69 11 -21
15 -37 10 -33 -18 10 -9 -15 10 -28 22 -16 38 -58 20 -58 -9 0 -8 -4 1 -15 10
-12 10 -15 -1 -15 -11 0 -11 -3 1 -11 12 -8 12 -12 2 -16 -10 -4 -9 -9 4 -24
16 -18 16 -19 -1 -19 -14 0 -13 -3 6 -19 l24 -20 -25 5 c-20 5 -22 4 -10 -6
12 -9 12 -13 2 -17 -10 -4 -9 -10 5 -26 17 -20 17 -20 -2 -13 -17 6 -16 4 5
-20 19 -21 21 -26 7 -21 -13 5 -16 3 -10 -6 13 -20 12 -68 -1 -60 -6 3 -6 0 2
-8 17 -19 15 -29 -5 -22 -13 4 -11 -1 6 -15 20 -19 21 -22 6 -22 -14 0 -15 -3
-6 -14 9 -11 9 -15 0 -18 -8 -3 -5 -10 7 -23 19 -18 18 -18 -6 -12 -22 5 -23
5 -7 -7 22 -17 22 -27 0 -19 -12 4 -9 -3 9 -21 22 -23 25 -32 17 -47 -8 -16
-6 -19 17 -19 15 0 35 -6 43 -14 19 -17 147 -47 215 -51 26 -1 51 -7 55 -12 8
-13 169 -47 209 -45 19 1 48 -5 65 -13 18 -8 70 -22 117 -30 72 -13 109 -13
241 -3 183 13 220 9 474 -58 277 -72 583 -167 595 -184 7 -8 171 -47 232 -54
26 -3 56 -10 65 -15 26 -14 209 -41 276 -41 32 0 65 -4 75 -10 21 -11 284 -30
329 -23 18 3 54 0 82 -7 65 -15 384 -22 1121 -24 629 -1 866 10 891 41 6 7 19
13 28 14 10 0 11 2 4 6 -7 2 -13 10 -13 15 0 6 -12 31 -26 56 -20 34 -29 41
-35 31 -6 -9 -7 -4 -3 16 l6 30 -26 -29 -26 -29 6 31 c5 25 3 32 -9 32 -8 0
-17 7 -21 15 -4 11 -22 15 -68 15 -38 0 -58 4 -50 9 11 6 10 11 -3 25 -9 9
-21 17 -26 17 -18 3 -24 5 -46 17 -20 11 -23 10 -24 -5 0 -15 -2 -15 -7 -3 -4
9 -17 16 -29 17 -35 1 -35 2 -21 17 8 7 56 23 108 35 52 11 129 30 170 41 41
11 84 22 95 24 21 5 118 29 200 50 191 50 399 125 465 166 8 5 30 16 48 24 17
8 32 20 32 25 0 6 7 8 15 5 11 -5 13 -2 9 10 -4 10 -1 16 7 16 9 1 7 6 -5 15
-17 13 -18 15 -3 15 9 0 17 5 17 11 0 6 -6 9 -13 6 -10 -4 -13 2 -9 19 3 15 0
24 -8 24 -10 0 -10 3 -1 14 9 11 9 15 -1 18 -10 4 -10 8 1 21 12 15 11 17 -4
17 -17 0 -17 1 0 20 17 19 17 20 0 20 -14 0 -15 3 -5 15 7 9 10 18 7 22 -4 3
3 21 14 40 19 30 19 33 2 27 -15 -6 -16 -4 -6 7 17 17 17 32 1 23 -10 -6 -10
-4 0 7 16 18 15 29 -3 29 -8 0 -15 -5 -15 -11 0 -5 -5 -7 -10 -4 -6 4 -7 11
-4 17 4 6 -1 8 -13 4 -27 -9 -53 3 -53 23 0 22 -38 54 -53 45 -9 -5 -9 -4 0 6
19 21 -15 110 -42 110 -8 0 -15 5 -15 11 0 8 -4 8 -14 -1 -10 -8 -21 -8 -32
-2 -11 6 -13 11 -5 16 6 4 11 12 11 17 0 6 -5 7 -12 3 -6 -4 -8 -3 -4 4 6 10
-10 62 -42 132 -9 19 -15 38 -14 43 1 4 -2 7 -8 7 -5 0 -10 7 -10 15 0 8 -5
15 -12 15 -6 0 -9 3 -6 6 10 9 -64 74 -107 94 -22 10 -58 24 -80 30 -22 7 -47
16 -55 19 -20 10 -194 6 -210 -4 -7 -5 -41 -9 -74 -11 -34 -2 -99 -6 -146 -10
-47 -4 -123 -8 -170 -8 -47 0 -88 -5 -92 -11 -5 -7 -11 -7 -15 0 -9 11 -83 17
-83 7 0 -4 -33 -8 -73 -10 -39 -1 -100 -8 -134 -14 -55 -10 -64 -10 -90 7 -15
11 -34 18 -42 17 -7 -2 -10 1 -7 6 7 12 -49 36 -63 28 -6 -4 -19 -1 -30 6 -15
9 -23 9 -35 -1 -11 -9 -16 -10 -16 -2 0 6 5 11 10 11 6 0 10 7 10 16 0 17 -23
44 -38 44 -5 0 -19 9 -32 20 -17 14 -26 17 -31 9 -4 -6 -12 -8 -19 -4 -10 6
-9 11 5 22 17 12 15 13 -23 13 -23 0 -42 5 -42 10 0 6 -5 10 -10 10 -6 0 -35
14 -66 32 l-56 31 23 18 c49 37 171 60 243 45 l39 -7 -6 54 c-11 91 -41 157
-136 302 -28 43 -120 138 -159 163 -14 9 -22 23 -21 36 1 12 -1 38 -6 59 -6
31 -15 42 -47 58 -22 11 -63 22 -90 23 -34 2 -55 9 -70 23 l-21 21 22 44 c26
55 27 84 2 98 -29 15 -52 12 -93 -10 l-36 -19 -35 38 c-19 21 -47 59 -61 84
-26 44 -26 45 -9 75 14 25 15 34 5 56 -13 30 -48 35 -66 10 -10 -13 -21 -5
-73 58 -80 97 -106 148 -93 183 6 15 10 42 10 60 0 29 -4 36 -27 41 -17 5 -37
1 -54 -9 -22 -12 -30 -13 -38 -3 -6 7 -8 16 -5 19 13 12 -8 97 -31 131 -23 35
-24 37 -7 66 13 22 14 34 6 47 -19 31 -41 39 -74 26 -30 -11 -30 -11 -54 40
-44 95 -54 124 -49 150 3 14 0 42 -7 62 -10 30 -9 39 3 53 23 26 29 57 16 86
-14 30 -38 40 -78 31 -28 -6 -29 -5 -61 84 l-32 91 36 40 c30 34 35 44 26 60
-17 32 -48 44 -78 31 -13 -7 -26 -10 -27 -9 -6 6 -75 232 -75 245 0 7 11 18
25 25 29 13 43 61 24 84 -10 12 -23 14 -51 10 -37 -6 -37 -6 -48 35 -6 23 -9
62 -6 88 7 54 -10 96 -39 96 -11 1 -54 -5 -95 -12 -70 -13 -100 -21 -141 -38
-13 -5 -20 4 -34 44 -9 28 -21 53 -26 56 -5 4 -9 17 -9 30 0 33 -26 38 -118
25 -122 -19 -336 -115 -374 -169 -16 -23 -53 -28 -248 -36 -80 -3 -233 -17
-340 -30 -107 -13 -234 -26 -282 -30 l-88 -6 0 46 c0 25 7 134 16 243 28 349
13 515 -60 630 -30 48 -30 48 -81 54 -22 3 -32 3 -22 1 18 -5 24 -38 8 -47 -5
-3 -24 -1 -42 6 -25 9 -34 9 -37 0 -6 -20 -40 -14 -47 8 -3 11 -16 22 -28 24
-41 9 -92 11 -122 6z m170 -261 c-9 -26 34 -45 129 -55 55 -6 66 -10 66 -25 0
-6 -4 -8 -9 -4 -14 8 -61 -16 -61 -31 0 -10 13 -12 46 -10 l46 3 -21 -20 c-17
-18 -22 -19 -37 -6 -12 9 -15 9 -10 2 9 -16 -6 -17 -21 -2 -7 7 -9 2 -6 -18 4
-22 2 -25 -6 -13 -8 11 -13 12 -19 3 -9 -14 -92 -46 -92 -35 0 9 49 32 67 32
27 0 13 36 -19 49 l-33 13 33 9 c34 10 41 22 20 36 -13 8 -18 9 -40 12 -27 3
-60 41 -52 58 4 10 6 22 5 26 -1 5 3 6 9 2 6 -4 8 -15 5 -26z m-117 -23 c-14
-10 -16 -23 -11 -63 5 -45 8 -50 27 -46 19 4 19 3 4 -7 -22 -14 -22 -23 -2
-66 12 -24 14 -50 10 -96 -3 -35 -6 -80 -7 -101 -1 -31 -4 -36 -16 -26 -8 7
-10 15 -4 18 5 4 4 14 -5 25 -13 19 -14 19 -14 -5 0 -13 7 -34 15 -46 15 -22
32 -184 18 -170 -4 4 -9 20 -11 35 -2 14 -11 49 -22 77 -92 255 -98 275 -105
385 -5 74 -4 83 9 67 10 -12 11 -28 6 -52 -7 -32 -6 -33 14 -25 12 4 29 4 38
-1 12 -7 16 -5 14 8 -2 10 4 24 13 31 9 8 10 11 4 7 -9 -4 -11 -1 -6 11 5 12
3 15 -6 9 -10 -6 -11 -3 -2 13 10 20 26 30 46 31 6 0 2 -6 -7 -13z m1438 -749
c4 -4 13 -2 21 4 23 20 14 2 -15 -29 -34 -36 -38 -76 -14 -131 17 -37 52 -81
52 -64 0 4 7 -3 17 -16 16 -23 15 -25 -6 -43 -13 -10 -18 -18 -11 -18 7 0 6
-6 -4 -16 -9 -8 -16 -28 -16 -44 0 -16 -5 -41 -11 -56 -10 -28 -4 -49 35 -133
24 -51 108 -77 159 -49 12 7 29 12 37 13 8 0 14 7 12 15 -3 12 -1 13 10 2 11
-11 10 -16 -7 -28 -11 -9 -19 -19 -18 -23 1 -3 -6 -7 -15 -8 -9 -1 -35 -6 -57
-12 -22 -6 -57 -11 -77 -11 -20 0 -39 -4 -42 -9 -3 -5 -15 -7 -26 -4 -11 3
-20 0 -20 -6 0 -6 4 -11 9 -11 20 0 63 -93 65 -141 2 -26 0 -46 -4 -44 -3 2
-6 -5 -6 -15 0 -10 4 -16 8 -14 4 3 8 -4 8 -16 0 -33 28 -78 58 -93 36 -19 95
-30 87 -17 -3 6 1 7 9 4 9 -3 16 -2 16 3 0 5 9 9 20 10 24 2 54 29 46 42 -7
11 49 25 63 17 5 -4 7 -21 4 -39 -4 -29 0 -37 27 -60 17 -15 36 -25 41 -21 5
3 9 1 9 -5 0 -5 -5 -11 -12 -13 -8 -3 -5 -11 9 -25 l20 -20 -33 -12 c-24 -9
-37 -9 -46 -1 -7 6 -28 24 -47 40 -24 21 -46 30 -70 31 -56 1 -145 7 -161 11
-26 7 -60 32 -60 46 0 7 -4 11 -9 8 -5 -4 -19 14 -31 39 -12 25 -25 47 -30 50
-18 11 -40 110 -43 190 -1 47 -5 85 -9 85 -5 0 -8 18 -8 40 0 22 -4 40 -8 40
-5 0 -8 19 -9 43 0 23 -3 62 -8 87 -11 60 -12 429 -2 433 17 5 86 1 93 -6z
m-178 -12 c12 -4 22 -12 22 -19 -1 -48 13 -689 15 -716 1 -19 8 -59 14 -89 6
-29 9 -57 6 -61 -3 -5 -1 -11 5 -15 5 -3 11 4 11 17 1 13 5 -5 9 -39 4 -37 14
-68 24 -79 16 -16 16 -18 1 -26 -14 -9 -14 -12 7 -29 16 -14 19 -22 11 -27 -9
-6 -7 -17 8 -41 11 -18 18 -40 15 -47 -3 -7 2 -20 10 -29 9 -8 13 -23 9 -34
-3 -10 1 -24 10 -31 8 -7 15 -23 15 -36 0 -12 5 -26 10 -29 6 -3 10 -17 10
-30 0 -13 4 -26 9 -29 5 -4 17 -32 27 -64 43 -138 96 -214 317 -460 31 -35 57
-71 57 -81 0 -10 -12 -3 -35 23 -19 22 -35 44 -35 48 0 5 -5 6 -12 2 -7 -4 -8
-3 -4 4 4 7 3 12 -2 12 -5 0 -15 11 -22 25 -7 13 -16 23 -19 22 -3 -1 -7 2 -8
7 -1 5 -12 14 -25 21 -13 6 -22 17 -21 23 2 6 -3 9 -10 7 -7 -3 -37 37 -75
100 -35 58 -67 105 -73 105 -5 0 -9 9 -9 21 0 12 -4 17 -11 14 -6 -4 -10 -1
-8 6 4 31 -2 49 -23 70 -13 12 -17 18 -9 14 7 -4 3 7 -10 26 -13 19 -27 36
-31 37 -5 2 -8 9 -8 16 0 7 -9 22 -20 34 -12 12 -18 22 -14 22 3 0 1 7 -6 15
-19 23 -60 114 -60 134 0 9 -5 22 -12 29 -8 8 -8 12 -1 12 6 0 13 14 15 30 4
26 2 29 -14 24 -10 -3 -18 -1 -18 5 0 5 9 13 20 16 14 4 20 15 19 33 0 24 -1
25 -9 7 -9 -21 -14 -7 -10 29 1 10 -3 15 -8 12 -14 -9 -33 19 -26 38 4 11 1
16 -10 16 -9 0 -16 8 -16 18 0 22 -33 116 -42 120 -5 2 -8 13 -8 23 0 11 -9
37 -19 57 -47 90 -71 145 -71 163 0 10 -4 19 -10 19 -5 0 -10 9 -10 20 0 11
-7 23 -16 27 -10 3 -14 13 -10 25 3 14 -1 22 -12 25 -11 2 -18 16 -19 35 -2
19 -13 42 -29 57 -30 31 -74 97 -74 114 -1 20 -30 52 -48 52 -10 0 -18 9 -20
23 -2 12 -8 22 -13 22 -5 0 -9 11 -9 24 0 13 -5 26 -10 28 -6 2 -12 17 -14 35
-4 27 -1 32 22 36 15 3 29 1 30 -4 2 -5 8 -9 13 -9 6 0 8 3 6 8 -3 4 11 8 31
10 20 1 39 -3 42 -9 5 -7 12 -5 23 5 18 18 47 21 47 5 0 -6 5 -7 13 -2 27 17
163 23 205 8z m729 -1382 c29 -18 53 -38 53 -43 0 -5 12 -16 27 -23 25 -14 26
-15 6 -21 -13 -4 -36 1 -60 13 -56 30 -127 34 -178 11 -37 -17 -44 -25 -54
-65 -6 -25 -9 -58 -5 -73 8 -37 28 -82 35 -82 3 0 4 -12 1 -26 -2 -14 -7 -22
-11 -17 -3 4 -15 13 -25 19 -11 6 -24 19 -30 30 -6 10 -14 21 -17 24 -3 3 -9
19 -13 35 -4 17 -13 37 -21 45 -7 8 -16 33 -20 55 -4 22 -16 57 -28 77 -25 45
-18 56 26 40 52 -19 127 -15 165 8 17 11 32 16 32 12 0 -4 5 1 11 11 13 22 34
16 106 -30z m211 -325 c52 -23 94 -56 86 -69 -3 -5 -31 -9 -62 -8 -41 0 -51 3
-37 9 20 9 20 9 0 9 -12 1 -26 6 -31 11 -16 16 -46 0 -41 -21 3 -10 0 -17 -6
-16 -6 1 -16 -9 -24 -23 -7 -14 -17 -24 -23 -22 -5 1 -10 -7 -10 -18 0 -26
-21 -34 -64 -26 -40 8 -96 74 -96 113 0 15 -6 23 -17 23 -9 0 -13 3 -10 6 4 4
42 7 86 7 44 0 78 4 75 9 -3 4 3 8 13 8 10 0 26 7 35 14 26 19 73 17 126 -6z
m22 -305 c24 -10 48 -17 53 -15 15 5 20 -30 8 -69 -7 -21 -17 -39 -24 -39 -7
0 -6 -4 3 -10 12 -8 10 -10 -11 -10 -53 0 -156 125 -133 162 4 7 2 8 -4 4 -8
-5 -12 0 -12 13 0 19 1 19 38 1 20 -10 57 -27 82 -37z m530 -650 c0 -7 6 -13
13 -13 6 0 26 -13 44 -30 17 -16 50 -35 72 -42 43 -14 50 -22 26 -32 -8 -3
-15 -14 -15 -25 0 -11 -9 -35 -20 -53 -18 -29 -20 -30 -20 -11 0 15 -14 33
-41 53 -60 43 -89 87 -89 132 0 21 -5 38 -11 38 -8 0 -7 5 2 16 12 14 14 14
26 -2 7 -10 13 -24 13 -31z m1713 -702 c25 -20 21 -34 -16 -56 -47 -28 -88
-43 -122 -44 -16 -1 -42 -7 -57 -15 -15 -8 -36 -12 -48 -9 -11 3 -20 1 -20 -3
0 -5 -10 -10 -22 -10 -276 -15 -275 -15 -291 0 -20 21 -38 20 -30 0 4 -11 1
-15 -13 -12 -47 8 -37 48 17 71 25 11 38 22 34 30 -3 6 0 5 6 -4 11 -15 14
-15 30 5 18 20 18 21 19 1 l1 -20 15 20 c11 14 18 16 21 8 7 -19 23 -16 23 5
1 16 1 16 11 -1 7 -12 15 -15 22 -9 14 10 78 29 127 37 19 3 53 9 75 14 64 13
199 8 218 -8z"/>
</g>
</svg>
