<?xml version="1.0" standalone="no"?>
<!DOCTYPE svg PUBLIC "-//W3C//DTD SVG 20010904//EN"
 "http://www.w3.org/TR/2001/REC-SVG-20010904/DTD/svg10.dtd">
<svg version="1.0" xmlns="http://www.w3.org/2000/svg"
 width="300.000000pt" height="254.000000pt" viewBox="0 0 300.000000 254.000000"
 preserveAspectRatio="xMidYMid meet">
<metadata>
Created by potrace 1.10, written by Peter Selinger 2001-2011
</metadata>
<g transform="translate(0.000000,254.000000) scale(0.050000,-0.050000)"
fill="#000000" stroke="none">
<path d="M707 4745 c-46 -108 -26 -313 52 -547 l65 -193 93 7 93 6 -97 -17
c-144 -27 -159 -35 -146 -86 6 -25 25 -175 42 -335 17 -159 35 -321 40 -360
26 -221 30 -366 14 -490 l-18 -140 -5 240 -6 240 -15 -250 c-17 -270 -59 -545
-111 -720 -18 -62 -35 -205 -38 -330 l-7 -220 17 200 c10 110 35 259 57 330
47 152 56 121 13 -40 -76 -279 -59 -640 30 -640 27 0 80 60 80 91 0 16 10 29
22 29 12 0 17 13 11 30 -13 33 18 42 37 10 7 -11 21 -20 32 -20 11 0 16 7 11
15 -5 9 51 15 124 15 101 0 133 7 133 28 0 16 11 32 24 37 15 5 21 -8 16 -34
-4 -23 0 -37 9 -31 10 5 38 -15 64 -45 50 -59 111 -73 101 -24 -14 74 -52 139
-81 141 -80 4 -154 22 -160 39 -15 43 -46 16 -35 -31 7 -29 4 -50 -8 -50 -11
0 -20 13 -20 29 0 15 -20 31 -44 35 -27 4 -50 25 -58 56 -13 45 -28 19 -19
-30 2 -11 -13 -2 -34 20 -29 30 -32 42 -12 46 15 4 27 16 27 28 0 11 -13 15
-29 9 -40 -15 -72 31 -58 83 10 36 17 40 41 21 24 -20 25 -16 4 30 -18 39 -19
65 -2 101 18 41 15 53 -22 81 -41 29 -39 29 26 0 l70 -31 -47 41 c-26 23 -37
41 -24 41 29 0 81 -49 81 -76 0 -11 15 -31 34 -47 29 -23 31 -23 17 1 -12 19
-8 24 11 17 15 -5 26 -20 23 -32 -8 -37 74 -70 87 -35 16 43 -8 72 -46 58 -23
-9 -28 -5 -16 14 12 19 3 23 -35 16 -36 -7 -48 -2 -42 16 6 14 25 20 44 14 20
-6 15 3 -12 23 -51 38 -61 76 -15 58 17 -6 30 -1 30 11 0 12 -14 22 -31 22
-17 0 -29 11 -28 25 8 54 -2 75 -35 75 -29 0 -29 4 5 30 38 29 38 30 1 17 -27
-10 -34 -7 -24 10 9 14 4 38 -10 55 -21 26 -38 149 -40 295 0 52 82 118 137
107 25 -5 45 -1 45 9 0 9 9 17 20 17 12 0 12 -20 -2 -54 l-20 -54 44 39 c25
21 38 28 30 14 -8 -14 -5 -25 7 -25 11 0 22 -25 24 -55 2 -48 4 -49 11 -10 5
25 17 40 27 34 11 -6 19 -2 19 10 0 11 -9 21 -21 21 -11 0 -26 16 -33 35 -7
19 -30 50 -50 68 -30 27 -33 42 -16 87 18 47 16 53 -11 42 -18 -6 -37 -12 -42
-12 -5 0 -4 -9 3 -20 7 -11 3 -20 -9 -20 -11 0 -17 20 -13 45 4 30 20 44 44
41 34 -3 33 0 -5 30 -66 53 -76 146 -13 122 73 -27 82 -22 26 17 -65 45 -72
83 -21 119 52 36 52 60 2 58 -22 -1 -39 6 -38 16 0 10 -10 24 -23 32 -12 8
-23 45 -24 82 -1 37 -9 83 -19 102 -9 19 -21 77 -25 130 -4 53 -3 80 2 61 5
-19 18 -35 30 -35 11 0 15 14 8 32 -7 17 -12 40 -12 50 0 10 -7 17 -15 16 -37
-6 -65 4 -65 22 0 11 27 20 59 20 100 0 230 -152 213 -248 -5 -28 3 -60 19
-73 16 -13 24 -32 18 -41 -6 -10 -2 -18 10 -18 31 0 61 -87 36 -103 -11 -7 -1
-19 22 -26 26 -8 44 -31 44 -57 2 -41 3 -41 17 -5 14 35 16 36 29 3 19 -51 16
-76 -7 -62 -11 7 -20 7 -20 1 0 -7 19 -19 42 -28 40 -15 41 -17 8 -50 -33 -33
-32 -34 15 -26 37 7 49 1 47 -24 -1 -23 12 -32 42 -28 34 3 41 -4 32 -29 -10
-25 -5 -30 21 -20 26 10 33 1 33 -47 0 -39 -10 -59 -30 -59 -16 0 -30 9 -30
20 0 11 -11 20 -24 20 -33 0 23 -55 64 -64 52 -11 105 -96 60 -96 -11 0 -20
13 -20 29 0 19 -12 25 -31 18 -30 -12 19 -67 52 -60 36 8 82 -70 59 -98 -19
-22 -19 -29 -1 -29 13 0 18 -9 11 -20 -7 -12 2 -14 22 -6 27 10 32 5 22 -22
-8 -19 -5 -29 5 -23 10 6 31 -2 47 -18 16 -16 35 -24 42 -17 6 7 12 4 12 -7 0
-11 -25 -30 -55 -42 -37 -16 -40 -20 -10 -13 26 6 45 1 45 -12 0 -12 9 -17 20
-10 11 7 20 -4 20 -24 0 -20 19 -48 42 -62 25 -16 37 -38 29 -57 -8 -23 -3
-28 20 -19 18 6 26 3 19 -8 -7 -11 -3 -20 8 -20 11 0 15 -14 9 -31 -8 -21 2
-35 30 -43 24 -6 43 -25 43 -43 1 -29 3 -29 22 -3 17 24 19 21 11 -16 -8 -37
-5 -42 17 -24 21 18 35 11 61 -28 18 -29 43 -46 54 -39 14 8 17 -3 10 -30 -10
-38 -7 -40 32 -19 39 20 40 19 16 -11 -30 -35 20 -146 55 -124 9 6 41 -12 71
-39 29 -28 60 -50 69 -50 9 0 39 -22 68 -48 28 -26 97 -63 153 -82 113 -37
140 -81 36 -59 -45 9 -59 7 -45 -8 11 -11 61 -23 111 -25 77 -4 91 -12 94 -48
4 -43 -127 -53 -296 -22 -28 5 -64 1 -80 -9 -20 -12 13 -19 101 -21 184 -4
243 -11 300 -35 38 -17 10 -19 -120 -8 -93 8 -262 14 -375 14 -130 -1 -197 5
-180 16 17 13 14 15 -12 7 -20 -7 -47 -13 -60 -13 -12 -1 -5 -10 17 -19 27
-12 30 -18 10 -19 -16 -1 -79 -24 -140 -51 -60 -28 -93 -37 -71 -20 21 16 33
34 27 40 -6 6 -32 -7 -58 -29 -26 -22 -42 -40 -34 -40 8 -1 -12 -57 -45 -126
-32 -69 -59 -136 -59 -150 0 -14 -9 -25 -20 -25 -11 0 -20 11 -20 25 -1 17 -7
15 -20 -5 -15 -24 -20 -20 -21 20 -2 46 -3 47 -19 10 -16 -38 -17 -38 -19 -2
0 21 -7 33 -13 26 -27 -26 -163 65 -177 118 -7 29 -17 48 -23 43 -5 -5 0 -34
12 -65 20 -51 18 -54 -25 -42 -25 7 -148 31 -275 53 -376 65 -447 80 -503 109
-62 30 -77 22 -77 -43 0 -26 -7 -47 -16 -47 -56 0 -86 -52 -62 -111 13 -32 25
-162 26 -288 l2 -228 60 -18 c33 -10 96 -26 140 -35 44 -9 162 -34 262 -56
126 -29 243 -40 380 -38 190 3 714 -118 797 -184 11 -10 62 -24 111 -31 50 -8
117 -22 150 -31 67 -20 144 -29 510 -61 328 -29 1806 -30 1991 -2 333 51 538
129 355 136 -335 12 -426 18 -426 30 0 7 -92 14 -205 14 -227 2 -341 14 -399
45 -20 11 -53 16 -72 10 -19 -6 -60 -15 -93 -21 -32 -5 -104 -19 -160 -30 -55
-12 -128 -20 -161 -20 -33 1 -136 -12 -229 -29 -132 -24 -173 -26 -184 -7 -12
19 -21 19 -40 0 -30 -30 -205 -35 -187 -5 7 11 30 20 51 20 100 0 25 31 -81
33 -65 1 -114 -6 -108 -15 9 -16 -19 -26 -57 -20 -8 1 -15 -11 -15 -28 0 -20
-18 -29 -55 -27 -47 2 -49 4 -10 11 27 5 45 23 45 46 0 20 16 41 35 46 21 6
13 10 -21 12 -33 1 -51 -6 -44 -18 7 -11 -8 -20 -34 -20 -38 1 -41 4 -16 21
22 15 -4 19 -93 15 -68 -3 -131 2 -140 11 -10 10 136 14 333 9 193 -5 328 -2
300 6 -35 10 -14 15 70 16 90 2 112 8 90 23 -21 15 6 18 95 8 92 -9 125 -6
125 11 0 16 17 20 50 12 28 -7 50 -5 50 5 0 22 113 51 175 46 25 -3 45 3 45
13 0 9 -11 18 -25 19 -33 3 -78 16 -119 34 -19 8 -46 10 -60 4 -16 -6 -12 -10
10 -11 20 -1 31 -11 24 -22 -8 -13 -25 -13 -51 0 -31 17 -36 15 -26 -10 9 -25
-2 -29 -61 -21 -40 5 -72 1 -72 -10 0 -10 -31 -17 -68 -14 -37 3 -64 12 -59
20 5 8 -16 14 -47 14 -49 -2 -51 -4 -16 -19 43 -18 42 -20 -20 -29 -22 -3 -49
-8 -60 -11 -39 -10 -92 0 -82 16 5 9 -13 16 -40 16 -33 0 -46 -9 -39 -27 7
-19 -1 -25 -24 -20 -19 4 -33 18 -30 31 3 13 -5 24 -17 24 -12 0 -17 -13 -11
-29 7 -19 -2 -27 -26 -26 -20 2 -33 13 -28 25 6 15 -27 21 -102 17 -86 -5
-111 0 -111 23 0 20 26 29 95 29 205 2 590 42 898 93 243 40 331 47 360 31 33
-19 30 -22 -23 -24 l-60 -2 70 -27 c85 -33 126 -37 110 -10 -16 25 20 25 114
-1 95 -26 114 -54 30 -44 -51 6 -58 3 -34 -14 23 -17 11 -20 -50 -12 l-80 11
100 -38 c74 -29 87 -39 51 -40 -36 -2 -43 -8 -26 -25 13 -13 37 -16 59 -6 20
8 43 14 52 12 42 -10 575 143 697 200 173 79 189 98 152 173 -16 32 -25 93
-21 138 8 89 -55 126 -144 83 -37 -18 -38 -17 -5 9 43 35 17 134 -35 134 -20
0 -30 19 -30 57 0 61 -74 185 -146 245 -66 55 -332 90 -376 50 -18 -16 -20
-15 -9 4 18 33 -371 14 -391 -19 -6 -11 -26 -22 -43 -24 -17 -3 -43 -15 -58
-26 -23 -19 -104 -52 -137 -56 -5 -1 -19 -8 -31 -15 -11 -7 -34 -5 -49 4 -19
12 -42 7 -65 -15 -34 -31 -36 -30 -23 2 12 32 6 31 -54 -6 -38 -22 -88 -41
-113 -41 -25 0 -45 -9 -45 -20 0 -11 -25 -20 -55 -19 -137 6 -259 -38 -203
-72 15 -9 29 -6 33 6 10 31 65 8 65 -27 0 -31 51 -38 69 -10 6 10 0 24 -14 30
-14 6 -5 7 20 0 29 -7 45 -2 45 16 1 19 5 20 16 2 17 -27 87 -25 109 4 8 11
15 4 15 -16 0 -24 9 -31 25 -21 14 9 115 27 225 40 110 14 263 35 340 48 201
32 277 36 304 14 13 -10 35 -12 48 -4 15 9 19 7 11 -6 -7 -11 3 -55 21 -98 34
-76 35 -76 42 -22 5 43 17 55 57 55 28 0 44 -9 37 -20 -7 -11 -25 -20 -41 -20
-16 0 -29 -9 -29 -20 0 -19 34 -28 95 -25 14 0 25 -7 25 -17 0 -10 10 -18 21
-18 12 0 15 10 8 22 -9 14 4 12 34 -3 26 -14 50 -23 54 -21 3 3 10 2 15 -3 8
-9 -293 -111 -369 -125 -25 -5 -61 -13 -80 -19 -18 -6 -64 -15 -103 -20 -38
-5 -98 -18 -132 -28 -33 -10 -85 -16 -114 -12 -30 3 -58 -2 -64 -11 -6 -9 -48
-23 -95 -30 -47 -7 -107 -17 -135 -21 -27 -4 -99 -17 -160 -29 -690 -133
-1124 -106 -1539 94 -323 155 -292 129 -264 225 73 242 377 349 833 294 l240
-30 83 84 c46 45 91 84 100 85 77 7 128 36 116 65 -7 18 -17 43 -22 56 -22 52
156 108 253 79 195 -57 300 -57 300 2 0 67 -106 250 -181 314 -32 27 -59 62
-59 77 0 47 -49 97 -101 102 -81 9 -102 29 -78 76 28 51 9 105 -31 89 -17 -7
-42 -17 -57 -23 -38 -15 -102 89 -96 157 3 47 -2 55 -34 45 -51 -16 -143 117
-143 207 0 60 -5 65 -45 53 -117 -37 -129 -36 -141 11 -18 66 3 75 48 21 l38
-47 0 61 c0 33 -9 66 -20 73 -11 7 -15 33 -9 59 13 51 -27 79 -73 49 -45 -28
-78 -21 -79 17 0 19 -13 52 -30 74 -16 21 -29 46 -29 56 0 33 40 -8 81 -81 23
-41 36 -56 29 -34 -32 99 -43 209 -25 227 30 30 2 83 -44 83 -58 0 -107 117
-68 162 40 47 33 78 -19 78 -53 0 -124 200 -77 216 13 4 23 25 23 47 0 30 -9
37 -38 28 -41 -13 -77 49 -52 89 52 84 -34 103 -215 48 -25 -8 -35 0 -35 29 0
64 -22 103 -59 103 -66 0 -236 -60 -309 -110 -63 -43 -112 -54 -308 -71 -129
-11 -294 -27 -368 -36 l-134 -15 4 334 c4 312 1 338 -38 391 -41 55 -191 101
-159 49 7 -12 3 -38 -9 -57 -21 -33 -22 -33 -12 0 12 39 -40 75 -108 75 -30 0
-51 -22 -73 -75z m313 -24 c0 -9 -22 -21 -50 -26 -57 -11 -72 37 -15 50 40 9
65 0 65 -24z m19 -126 c0 -8 -15 -15 -34 -15 -30 1 -31 4 -5 22 23 16 18 19
-25 12 -39 -6 -55 0 -55 21 0 20 13 26 40 19 23 -6 41 0 41 13 2 22 35 -42 38
-72z m-244 20 c11 -14 17 -54 14 -90 -3 -36 2 -65 10 -65 8 0 14 -29 12 -65
-13 -256 -12 -249 -34 -195 -59 141 -73 236 -43 294 35 69 35 68 3 88 -22 14
-21 18 3 18 27 1 27 3 0 20 -16 11 -20 20 -7 20 12 0 31 -11 42 -25z m195 -55
c56 0 90 -39 36 -41 -32 -2 -32 -4 4 -18 38 -15 37 -17 -13 -41 -61 -29 -58
-110 4 -94 25 7 33 1 25 -19 -6 -16 -22 -25 -36 -20 -14 6 -35 0 -48 -13 -17
-17 -20 -7 -10 42 13 63 -17 93 -39 39 -6 -15 -10 -10 -11 11 -1 19 12 41 29
47 23 9 25 18 7 39 -18 22 -17 28 5 29 15 1 7 10 -18 20 -25 10 -45 32 -45 50
0 29 3 29 31 0 18 -17 53 -31 79 -31z m42 -408 c13 -28 15 -60 6 -75 -13 -20
-17 -21 -18 -2 0 14 -17 25 -39 25 -69 0 -117 66 -59 83 78 21 87 19 110 -31z
m1238 -52 c25 0 51 -15 58 -33 18 -45 -1 -58 -38 -27 -18 15 -92 29 -166 32
-189 7 -206 12 -104 29 50 8 116 11 148 7 31 -5 77 -8 102 -8z m-85 -111 c121
-12 135 -18 135 -56 0 -26 -6 -34 -15 -20 -9 13 -85 26 -175 30 l-160 7 -6
-54 c-9 -72 76 -132 142 -100 24 11 82 25 129 31 l85 9 0 -75 c0 -73 -1 -74
-82 -78 -45 -1 -90 -8 -99 -14 -10 -6 -41 5 -70 24 -61 39 -88 16 -89 -77 0
-104 70 -138 178 -84 35 18 82 27 103 22 22 -6 39 -2 39 8 0 65 38 0 44 -77
10 -106 3 -128 -25 -84 -11 18 -19 20 -19 5 0 -49 -144 -69 -175 -25 -15 21
-46 39 -69 39 -36 0 -37 -4 -13 -33 15 -18 25 -39 23 -45 -2 -7 12 -9 30 -5
31 6 31 4 1 -20 -18 -15 -38 -40 -45 -57 -7 -16 -9 -10 -4 15 5 25 0 40 -10
34 -26 -16 -22 -77 6 -105 34 -34 116 -30 158 8 20 18 59 33 87 35 28 2 51 10
51 18 0 8 9 15 20 15 11 0 20 -22 20 -49 0 -26 8 -70 19 -97 25 -66 -97 -92
-198 -41 -44 22 -71 25 -85 11 -33 -33 -1 -59 59 -49 30 6 50 5 43 -2 -6 -7
-34 -15 -62 -17 -52 -4 -67 -71 -29 -131 28 -45 129 -30 165 25 41 63 103 65
126 4 10 -25 32 -58 50 -72 64 -54 -9 -104 -89 -62 -51 28 -139 -20 -139 -76
0 -99 123 -162 181 -93 39 47 138 93 172 81 16 -6 24 -3 17 7 -13 22 52 61
103 61 30 0 29 -5 -10 -32 -67 -47 -23 -82 46 -37 104 68 169 56 83 -15 -43
-35 -70 -73 -64 -88 19 -48 -43 -30 -87 25 -23 29 -48 46 -56 38 -8 -9 5 -29
30 -46 72 -48 26 -90 -103 -94 -54 -1 -88 -62 -60 -106 32 -50 97 -54 162 -8
77 54 176 69 207 32 13 -16 34 -29 46 -29 12 0 2 14 -23 31 -25 18 -39 40 -33
50 15 25 129 24 129 -1 0 -11 -10 -20 -21 -20 -47 0 7 -40 57 -42 45 -2 42 -5
-21 -20 -42 -10 -100 -33 -129 -53 -30 -19 -69 -32 -87 -29 -18 3 -45 -9 -60
-27 -63 -76 88 -158 155 -85 20 22 63 54 96 71 33 17 66 40 74 52 9 14 43 -2
93 -42 l79 -64 56 44 c31 24 49 33 41 20 -10 -17 0 -26 31 -28 l46 -2 -45 -9
c-26 -5 -40 -18 -32 -31 7 -11 4 -16 -6 -9 -23 14 -201 -36 -238 -67 -14 -11
-32 -18 -42 -16 -25 7 -107 -23 -107 -40 0 -93 137 -131 211 -58 115 113 159
135 185 94 41 -66 16 -274 -32 -264 -12 2 -18 -8 -12 -23 6 -15 0 -35 -14 -43
-16 -10 -19 -7 -8 11 11 18 8 21 -8 11 -14 -8 -20 -28 -14 -44 7 -16 4 -24 -6
-18 -10 6 -32 -20 -50 -58 -18 -38 -42 -75 -53 -81 -23 -15 -25 15 -2 41 36
42 145 257 115 228 -18 -17 -58 -80 -89 -140 -46 -90 -66 -110 -114 -114 -56
-6 -57 -4 -21 24 35 28 36 34 8 66 -17 19 -49 71 -72 115 -41 82 -165 208
-324 331 -49 38 -112 95 -140 128 -27 32 -67 72 -88 90 -21 17 -52 49 -70 70
-18 22 -66 75 -107 118 -41 43 -75 88 -75 101 0 13 -8 33 -19 43 -10 10 -23
44 -29 74 -5 31 -28 79 -51 108 -28 35 -41 82 -41 143 0 50 -12 105 -27 122
-47 55 -74 217 -87 520 l-12 294 88 5 c48 3 149 0 223 -8z m-345 -274 c0 -706
218 -1159 753 -1564 187 -143 276 -238 318 -343 l31 -78 -75 78 c-91 97 -280
252 -306 252 -25 0 -481 457 -481 482 0 18 -122 225 -199 338 -19 28 -41 75
-48 105 -8 30 -23 55 -35 55 -11 0 -15 9 -8 20 7 11 -1 20 -18 20 -20 0 -26
11 -18 33 9 23 5 29 -11 19 -16 -10 -23 10 -23 67 0 44 -9 81 -20 81 -11 0
-20 16 -20 36 0 20 -8 45 -18 55 -14 15 -33 101 -41 187 -1 5 -19 -8 -40 -27
-22 -20 -38 -45 -35 -57 2 -12 -12 -25 -31 -29 -22 -5 -35 4 -35 24 0 17 -9
31 -19 31 -11 0 -15 13 -9 28 6 15 -10 42 -35 60 -30 21 -36 32 -16 32 23 1
24 4 2 18 -21 13 -20 19 7 29 45 18 18 53 -41 53 -51 0 -62 29 -31 78 22 35
-20 83 -76 87 -51 4 -31 49 27 60 25 5 108 11 183 13 75 2 139 7 142 10 3 3
55 7 116 10 l110 4 0 -267z m679 -14 c29 -53 27 -61 -14 -61 -24 0 -35 16 -35
50 0 60 21 65 49 11z m20 -188 c-19 -18 -22 -16 -10 7 7 17 0 13 -18 -9 -17
-21 -59 -41 -94 -44 -58 -4 -60 -2 -31 28 27 26 37 27 63 5 27 -22 30 -21 20
5 -7 19 6 44 35 63 53 38 84 -10 35 -55z m101 -89 c-27 -5 -57 -20 -66 -36
-17 -30 -105 -38 -122 -11 -6 9 25 29 69 43 43 15 79 34 79 44 0 10 20 6 45
-8 l45 -25 -50 -7z m-1188 -17 c-6 -15 2 -27 19 -27 16 0 29 -9 29 -20 0 -34
-35 -23 -90 28 -35 33 -44 51 -26 57 41 14 79 -7 68 -38z m1196 -72 c-30 -53
-74 -94 -91 -83 -9 6 -22 -3 -29 -20 -22 -57 -108 -100 -108 -53 0 39 111 116
135 93 5 -6 28 12 49 39 41 51 68 67 44 24z m51 -230 c1 -17 -31 -25 -94 -24
l-95 0 67 61 c68 62 120 46 122 -37z m-183 -112 c-89 -40 -41 -82 50 -43 138
57 163 39 66 -50 -105 -97 -94 -97 -163 1 -62 90 -49 120 51 117 l50 -1 -54
-24z m330 -101 c11 -27 -40 -52 -106 -51 -21 0 -16 12 17 40 56 46 75 49 89
11z m214 -217 c43 -70 51 -115 21 -115 -11 0 -35 34 -53 75 -19 41 -38 82 -43
90 -25 49 42 4 75 -50z m-70 -55 c36 -39 35 -40 -48 -40 -77 0 -82 3 -62 40
12 22 33 40 48 40 14 0 42 -18 62 -40z m186 -204 c47 -47 28 -80 -26 -44 -27
18 -45 40 -39 50 15 25 36 23 65 -6z m-147 -839 c-10 -31 -7 -38 12 -26 16 10
20 7 11 -7 -20 -33 -63 -9 -67 37 -1 23 10 39 28 39 21 0 26 -12 16 -43z
m-1950 -368 c270 -39 678 -162 1091 -329 299 -120 406 -140 759 -140 542 0
1477 154 1969 323 60 20 112 33 117 29 4 -5 -13 -15 -38 -23 -26 -8 -81 -36
-122 -62 -41 -26 -81 -45 -90 -43 -8 3 -33 -6 -55 -18 -44 -24 -358 -103 -470
-117 -38 -5 -169 -27 -290 -49 -551 -98 -975 -120 -1370 -71 -138 17 -260 49
-260 69 0 7 -16 15 -35 17 -83 10 -109 19 -126 46 -16 25 -18 25 -19 -1 0 -22
-5 -23 -16 -6 -9 14 -96 49 -195 80 -98 30 -182 62 -186 70 -3 9 -42 22 -85
29 -43 7 -84 20 -90 30 -6 10 -19 13 -29 7 -10 -7 -70 4 -133 23 -64 19 -127
36 -140 39 -13 2 -58 16 -100 30 -42 14 -82 25 -89 23 -7 -2 -47 15 -90 37
-51 26 -60 36 -27 28 28 -6 81 -16 119 -21z m-79 -71 c0 -21 -43 -23 -88 -6
-54 21 -35 42 28 32 33 -5 60 -17 60 -26z m150 -42 c14 -15 2 -17 -40 -7 -33
8 -69 23 -80 35 -14 15 -2 17 40 7 33 -8 69 -23 80 -35z m60 -89 c198 -49 385
-99 415 -110 53 -21 75 -57 35 -57 -11 0 -20 -10 -20 -23 0 -14 14 -10 36 10
44 39 69 33 374 -92 288 -119 343 -134 578 -162 144 -17 201 -32 207 -53 7
-26 5 -26 -13 0 -16 22 -21 23 -22 4 0 -17 -14 -22 -38 -15 -22 7 -51 -1 -68
-18 -17 -17 -52 -31 -78 -31 -36 1 -39 5 -17 19 16 10 35 15 43 10 8 -5 19 4
25 20 9 23 -13 27 -118 22 -77 -4 -129 2 -129 13 0 11 -14 15 -31 8 -20 -7
-26 -3 -17 11 10 16 0 20 -29 12 -24 -6 -38 -3 -32 7 11 18 -29 26 -98 19 -22
-3 -32 4 -24 17 13 21 5 25 -54 30 -14 1 -37 13 -51 26 -14 13 -38 19 -55 13
-16 -6 -29 -1 -29 11 0 16 -12 15 -39 -2 -27 -17 -33 -32 -19 -48 24 -29 118
-49 118 -25 0 27 34 20 69 -14 17 -18 31 -25 31 -16 0 8 11 4 24 -9 18 -18 30
-17 55 1 28 23 28 21 1 -13 -23 -30 -24 -40 -5 -47 14 -5 20 -17 13 -28 -7
-11 12 -14 45 -7 50 10 52 9 13 -9 -24 -10 -64 -15 -89 -10 -24 4 -54 0 -66
-10 -14 -12 -34 -11 -52 2 -24 17 -23 19 6 10 22 -8 35 -1 35 17 0 19 -12 24
-33 16 -25 -9 -30 -5 -19 16 8 15 2 12 -15 -8 -28 -35 -33 -35 -116 6 -244
121 -497 189 -497 133 0 -13 -27 -40 -60 -60 l-60 -35 20 52 c29 75 25 88 -20
76 -22 -6 -40 -19 -40 -28 0 -10 -10 -18 -21 -18 -34 0 0 40 68 82 35 21 52
38 38 38 -13 0 -54 -18 -90 -40 -71 -44 -95 -49 -95 -22 0 9 25 28 55 40 30
13 78 41 105 63 l50 40 -60 -25 c-33 -14 -64 -31 -70 -38 -30 -38 -185 -100
-173 -70 6 18 3 32 -8 32 -10 0 -19 -9 -19 -19 0 -11 -14 -14 -31 -8 -27 10
-26 17 5 53 l36 42 -60 -41 c-99 -67 -110 -72 -99 -41 6 16 33 40 59 54 26 14
52 38 58 52 6 15 -27 0 -72 -32 -88 -64 -139 -81 -86 -28 47 48 20 59 -44 18
l-56 -36 59 63 c60 65 57 78 -10 42 -67 -35 -42 -2 44 61 46 33 69 60 52 60
-16 0 -41 -13 -55 -30 -14 -16 -34 -30 -46 -30 -11 0 -4 18 16 40 33 36 33 40
3 40 -18 0 -33 8 -33 18 0 10 17 14 38 8 21 -5 44 2 53 16 11 17 6 21 -18 12
-18 -7 -33 -5 -33 4 0 9 -20 27 -45 40 -35 18 -36 21 -5 11 22 -7 202 -52 400
-102z m99 52 c33 -33 -59 -21 -100 12 -37 30 -36 31 21 19 33 -7 69 -21 79
-31z m161 -43 c14 -15 2 -17 -40 -7 -33 8 -69 23 -80 35 -14 15 -2 17 40 7 33
-8 69 -23 80 -35z m3758 -24 c-12 -32 -152 -94 -298 -132 -55 -15 -111 -35
-124 -45 -13 -10 -35 -12 -48 -4 -15 10 -19 7 -10 -8 10 -15 -5 -20 -47 -15
-73 8 -100 -19 -39 -39 60 -19 17 -43 -106 -60 -93 -12 -135 -49 -57 -49 21 0
44 -9 51 -20 19 -30 -35 -24 -84 10 -23 16 -90 40 -149 54 -59 13 -91 27 -71
31 20 5 64 -1 98 -13 34 -12 76 -21 94 -20 18 1 1 11 -38 22 -38 12 -59 25
-45 30 14 5 54 0 88 -12 35 -12 77 -21 95 -20 18 0 1 12 -38 26 l-69 25 88 15
c49 7 100 23 113 34 13 11 44 23 69 28 122 24 330 106 312 123 -5 6 -28 1 -50
-11 -48 -26 -83 -28 -83 -5 0 27 137 62 145 37 5 -15 39 -12 106 11 55 18 101
33 103 34 3 0 0 -12 -6 -27z m-3318 -116 c14 -15 2 -17 -40 -7 -33 8 -69 23
-80 35 -14 15 -2 17 40 7 33 -8 69 -23 80 -35z m2880 13 c-68 -31 -169 -39
-139 -11 23 22 82 37 149 38 48 1 48 0 -10 -27z m-2762 -41 c50 -19 38 -52
-13 -37 -60 18 -92 49 -51 49 18 0 47 -5 64 -12z m2522 -19 c-70 -32 -150 -37
-150 -10 0 18 67 34 160 36 48 2 48 1 -10 -26z m-2350 -71 c0 -23 -8 -23 -69
5 -71 33 -64 59 9 34 33 -12 60 -29 60 -39z m2110 22 c-58 -25 -189 -25 -150
0 17 11 66 19 110 18 63 -1 71 -4 40 -18z m-2021 -40 c28 -10 51 -27 51 -38 0
-11 -25 -9 -60 4 -33 13 -60 30 -60 38 0 20 7 20 69 -4z m1780 2 c-18 -17
-133 -31 -179 -22 -32 6 75 36 139 38 36 1 52 -5 40 -16z m-249 -42 c0 -11
-26 -20 -58 -20 -32 0 -73 -5 -90 -12 -18 -7 -32 -3 -32 8 0 24 44 38 125 42
30 1 55 -7 55 -18z m-1365 -13 c66 -17 56 -54 -10 -38 -64 16 -108 51 -64 51
16 0 49 -6 74 -13z m1115 -27 c-7 -11 -48 -20 -92 -20 -49 0 -75 8 -68 20 7
11 48 20 92 20 49 0 75 -8 68 -20z m-910 -20 c22 -14 11 -19 -44 -20 -40 0
-79 9 -86 20 -16 26 90 26 130 0z m680 0 c0 -11 -47 -19 -105 -19 -77 1 -94 6
-65 19 56 24 170 24 170 0z m-460 -20 c0 -11 -36 -20 -80 -20 -44 0 -80 9 -80
20 0 11 36 20 80 20 44 0 80 -9 80 -20z m220 0 c0 -11 -40 -20 -90 -20 -49 0
-90 9 -90 20 0 11 41 20 90 20 50 0 90 -9 90 -20z m-706 -148 c-8 -20 1 -25
32 -18 40 8 40 6 9 -14 -55 -35 -130 -6 -81 31 46 35 53 35 40 1z m351 -35
c-10 -10 -58 -22 -107 -27 l-88 -9 90 36 c89 36 141 36 105 0z m215 28 c0 -9
-40 -18 -90 -20 -49 -2 -90 3 -90 12 0 8 41 18 90 20 50 3 90 -3 90 -12z m240
-163 c0 -24 -18 -41 -49 -47 -59 -11 -78 25 -33 59 47 36 82 31 82 -12z"/>
<path d="M3054 1934 c-16 -42 39 -101 79 -85 21 7 28 19 16 27 -11 8 -34 30
-52 48 -25 26 -36 28 -43 10z"/>
<path d="M1457 3684 c-12 -71 -7 -109 16 -118 15 -6 27 -23 27 -39 0 -23 5
-24 28 -3 24 22 21 32 -23 68 -48 39 -49 44 -16 62 32 18 32 21 3 32 -18 7
-33 6 -35 -2z"/>
<path d="M1255 906 c-19 -5 -35 -18 -35 -29 0 -11 18 -14 40 -7 49 16 52 -6 5
-43 -25 -19 -14 -18 42 4 59 24 83 26 105 8 20 -17 28 -18 28 -1 0 12 14 22
31 22 18 0 25 -10 18 -22 -9 -13 0 -19 22 -15 20 4 39 18 44 32 6 17 -3 21
-27 12 -21 -8 -30 -6 -22 6 7 12 -29 19 -97 16 -59 -2 -103 4 -97 14 11 18 1
18 -57 3z"/>
<path d="M1732 769 c-18 -48 -14 -63 8 -29 17 25 23 26 38 2 10 -15 28 -21 40
-13 12 7 22 3 22 -9 0 -12 10 -16 23 -8 16 10 20 0 11 -31 l-11 -46 48 46 c57
53 60 62 19 46 -16 -6 -30 -1 -30 12 0 13 -10 17 -22 10 -12 -8 -28 -5 -35 6
-25 39 -98 48 -111 14z"/>
<path d="M1100 3700 c0 -11 9 -20 20 -20 11 0 20 -9 20 -20 0 -11 -13 -20 -30
-20 -16 0 -30 10 -30 21 0 12 -10 15 -21 8 -32 -19 51 -72 89 -57 44 17 40 53
-8 83 -24 15 -40 17 -40 5z"/>
<path d="M2326 1714 c2 -12 -6 -23 -19 -23 -13 -1 -31 -9 -40 -19 -10 -11 -5
-12 11 -2 22 12 26 8 16 -17 -8 -21 -3 -33 14 -33 15 0 26 16 25 35 -2 22 10
34 32 32 48 -4 44 26 -4 39 -23 6 -38 1 -35 -12z"/>
<path d="M1526 1686 c16 -25 -53 -92 -74 -72 -8 8 -9 1 -2 -16 6 -17 25 -31
41 -31 17 0 27 9 22 21 -4 12 5 37 21 55 22 25 23 37 4 48 -14 9 -19 7 -12 -5z"/>
<path d="M2505 1669 c7 -8 48 -18 89 -22 42 -4 87 -12 101 -17 14 -5 25 0 25
11 0 10 -25 20 -55 21 -30 1 -82 6 -115 11 -32 5 -53 3 -45 -4z"/>
<path d="M3865 1622 c-50 -47 -67 -51 -195 -46 -100 4 -131 0 -110 -15 29 -20
10 -31 -43 -24 -7 1 -8 -16 -2 -38 9 -38 11 -38 37 -4 19 25 27 27 27 8 1 -23
7 -23 31 -3 26 22 29 20 17 -12 -13 -37 -13 -37 29 -1 23 21 56 33 73 26 17
-6 31 -2 31 9 0 11 8 15 18 9 11 -6 31 0 45 15 31 30 177 40 177 12 0 -10 -18
-18 -40 -18 -22 0 -40 -8 -40 -18 0 -21 81 -16 117 6 13 8 48 19 77 24 100 19
114 68 16 57 -27 -3 -50 1 -50 9 0 51 -162 54 -215 4z"/>
<path d="M1920 1639 c0 -12 -8 -16 -18 -10 -23 14 -82 -8 -82 -30 0 -9 26 -9
58 1 33 9 63 13 67 8 5 -4 8 6 8 22 0 17 -7 30 -16 30 -9 0 -17 -10 -17 -21z"/>
<path d="M2600 1595 c0 -8 61 -14 135 -12 140 3 124 11 -40 21 -52 4 -95 -1
-95 -9z"/>
<path d="M2005 1531 c-25 -11 -45 -32 -45 -47 0 -14 -8 -22 -17 -16 -40 25
-185 -200 -181 -281 1 -28 4 -29 11 -7 25 74 70 159 89 171 12 7 2 -23 -21
-68 -22 -45 -40 -93 -39 -107 1 -14 15 6 31 44 17 39 46 87 64 108 25 29 27
40 7 47 -29 10 5 65 41 65 11 0 9 -13 -5 -30 -44 -52 7 -31 80 34 54 48 57 55
16 29 -80 -49 -95 -39 -27 17 66 54 64 73 -4 41z"/>
<path d="M2390 1538 c-49 -11 -40 -14 45 -16 58 -1 105 1 105 6 0 16 -93 23
-150 10z"/>
<path d="M1488 1448 c7 -17 18 -53 24 -80 7 -26 19 -48 28 -48 9 0 7 36 -5 80
-11 44 -29 80 -40 80 -10 0 -14 -14 -7 -32z"/>
<path d="M1925 1315 c-44 -46 -86 -139 -83 -181 0 -13 11 3 22 36 12 33 43 89
70 125 56 75 52 85 -9 20z"/>
<path d="M4456 1189 c-13 -12 -66 -23 -206 -40 -146 -18 -200 -26 -200 -29 0
-2 -43 -5 -97 -7 -58 -2 -105 -15 -120 -33 -23 -30 -49 -40 -123 -47 -62 -6
-117 -45 -101 -71 11 -18 22 -18 44 1 21 17 34 18 44 3 8 -13 67 -18 153 -12
77 4 169 9 205 10 36 2 65 9 65 16 0 7 54 12 121 10 66 -2 110 3 97 11 -12 8
34 22 104 31 71 8 133 16 138 17 33 5 57 37 47 63 -7 16 -17 25 -22 19 -6 -6
-27 8 -46 30 -25 29 -40 34 -50 18 -10 -17 -18 -17 -28 -1 -7 13 -19 17 -25
11z"/>
<path d="M2362 1165 c8 -50 -5 -67 -47 -57 -25 7 -34 6 -20 0 14 -6 25 -23 25
-37 0 -16 18 -22 50 -16 50 10 71 45 26 45 -19 0 -19 5 0 24 33 33 30 56 -6
56 -16 0 -29 -7 -28 -15z"/>
<path d="M3128 1056 c6 -22 -3 -36 -29 -40 -34 -5 -33 -9 11 -29 63 -29 75
-11 37 53 -16 28 -25 35 -19 16z"/>
<path d="M2470 1032 c-33 -23 -34 -33 -12 -60 39 -47 52 -40 52 28 0 33 -1 60
-1 60 -1 0 -18 -13 -39 -28z"/>
<path d="M2541 990 c1 -83 84 -132 154 -92 33 20 33 21 0 24 -19 2 -44 5 -55
8 -11 3 -34 6 -51 8 -17 1 -27 9 -21 18 5 9 1 29 -9 45 -15 23 -18 21 -18 -11z"/>
<path d="M3007 888 c0 -35 26 -37 40 -3 6 15 10 12 11 -9 1 -19 -14 -43 -33
-54 -51 -30 -3 -25 51 5 43 24 44 28 13 54 -45 37 -82 40 -82 7z"/>
<path d="M4045 628 c7 -6 46 -19 88 -29 70 -15 73 -14 38 12 -36 27 -151 43
-126 17z"/>
<path d="M3969 588 c43 -16 88 -25 100 -21 29 11 -82 53 -135 52 -31 -1 -20
-11 35 -31z"/>
</g>
</svg>
